ffmpeg version 4.2.7-0ubuntu0.1 Copyright (c) 2000-2022 the FFmpeg developers
  built with gcc 9 (Ubuntu 9.4.0-1ubuntu1~20.04.1)
  configuration: --prefix=/usr --extra-version=0ubuntu0.1 --toolchain=hardened --libdir=/usr/lib/x86_64-linux-gnu --incdir=/usr/include/x86_64-linux-gnu --arch=amd64 --enable-gpl --disable-stripping --enable-avresample --disable-filter=resample --enable-avisynth --enable-gnutls --enable-ladspa --enable-libaom --enable-libass --enable-libbluray --enable-libbs2b --enable-libcaca --enable-libcdio --enable-libcodec2 --enable-libflite --enable-libfontconfig --enable-libfreetype --enable-libfribidi --enable-libgme --enable-libgsm --enable-libjack --enable-libmp3lame --enable-libmysofa --enable-libopenjpeg --enable-libopenmpt --enable-libopus --enable-libpulse --enable-librsvg --enable-librubberband --enable-libshine --enable-libsnappy --enable-libsoxr --enable-libspeex --enable-libssh --enable-libtheora --enable-libtwolame --enable-libvidstab --enable-libvorbis --enable-libvpx --enable-libwavpack --enable-libwebp --enable-libx265 --enable-libxml2 --enable-libxvid --enable-libzmq --enable-libzvbi --enable-lv2 --enable-omx --enable-openal --enable-opencl --enable-opengl --enable-sdl2 --enable-libdc1394 --enable-libdrm --enable-libiec61883 --enable-nvenc --enable-chromaprint --enable-frei0r --enable-libx264 --enable-shared
  libavutil      56. 31.100 / 56. 31.100
  libavcodec     58. 54.100 / 58. 54.100
  libavformat    58. 29.100 / 58. 29.100
  libavdevice    58.  8.100 / 58.  8.100
  libavfilter     7. 57.100 /  7. 57.100
  libavresample   4.  0.  0 /  4.  0.  0
  libswscale      5.  5.100 /  5.  5.100
  libswresample   3.  5.100 /  3.  5.100
  libpostproc    55.  5.100 / 55.  5.100
[rawvideo @ 0x5587d33ec780] Estimating duration from bitrate, this may be inaccurate
Input #0, rawvideo, from 'output.yuv':
  Duration: 00:00:04.80, start: 0.000000, bitrate: 2488320 kb/s
    Stream #0:0: Video: rawvideo (I420 / 0x30323449), yuv420p, 3840x2160, 2488320 kb/s, 25 tbr, 25 tbn, 25 tbc
Stream mapping:
  Stream #0:0 -> #0:0 (rawvideo (native) -> h264 (libx264))
Press [q] to stop, [?] for help
[libx264 @ 0x5587d33f1d80] using cpu capabilities: MMX2 SSE2Fast SSSE3 SSE4.2 AVX
[libx264 @ 0x5587d33f1d80] profile High, level 5.1
Output #0, h264, to 'output_h264.264':
  Metadata:
    encoder         : Lavf58.29.100
    Stream #0:0: Video: h264 (libx264), yuv420p, 3840x2160, q=-1--1, 30 fps, 30 tbn, 30 tbc
    Metadata:
      encoder         : Lavc58.54.100 libx264
    Side data:
      cpb: bitrate max/min/avg: 0/0/0 buffer size: 0 vbv_delay: -1
frame=   19 fps=0.0 q=0.0 size=       0kB time=00:00:00.00 bitrate=N/A speed=   0x    frame=   44 fps= 43 q=0.0 size=       0kB time=00:00:00.00 bitrate=N/A speed=   0x    frame=   47 fps=9.4 q=0.0 size=       0kB time=00:00:00.00 bitrate=N/A speed=   0x    frame=   52 fps=9.4 q=0.0 size=       0kB time=00:00:00.00 bitrate=N/A speed=   0x    frame=   59 fps=9.7 q=29.0 size=     512kB time=00:00:00.03 bitrate=125830.4kbits/s speed=0.00551x    frame=   65 fps=9.7 q=29.0 size=     768kB time=00:00:00.23 bitrate=26963.4kbits/s speed=0.0349x    frame=   70 fps=9.6 q=29.0 size=     768kB time=00:00:00.40 bitrate=15728.6kbits/s speed=0.0548x    frame=   77 fps=9.7 q=29.0 size=    1024kB time=00:00:00.63 bitrate=13245.2kbits/s speed=0.0799x    frame=   82 fps=9.7 q=29.0 size=    1024kB time=00:00:00.80 bitrate=10485.8kbits/s speed=0.0945x    frame=   88 fps=9.6 q=29.0 size=    1280kB time=00:00:01.00 bitrate=10485.8kbits/s speed=0.109x    frame=   92 fps=6.6 q=29.0 size=    1536kB time=00:00:01.13 bitrate=11102.6kbits/s speed=0.0809x    frame=  101 fps=6.8 q=29.0 size=    1792kB time=00:00:01.43 bitrate=10241.9kbits/s speed=0.0967x    frame=  105 fps=6.8 q=29.0 size=    1792kB time=00:00:01.56 bitrate=9370.3kbits/s speed=0.101x    frame=  112 fps=6.9 q=29.0 size=    2304kB time=00:00:01.80 bitrate=10485.8kbits/s speed=0.111x    frame=  117 fps=7.0 q=29.0 size=    2304kB time=00:00:01.96 bitrate=9597.1kbits/s speed=0.118x    frame=  120 fps=6.9 q=29.0 size=    2560kB time=00:00:02.06 bitrate=10147.5kbits/s speed=0.119x    frame=  120 fps=2.9 q=-1.0 Lsize=    6437kB time=00:00:03.93 bitrate=13406.6kbits/s speed=0.0947x    
video:6437kB audio:0kB subtitle:0kB other streams:0kB global headers:0kB muxing overhead: 0.000000%
[libx264 @ 0x5587d33f1d80] frame I:3     Avg QP:23.09  size:323360
[libx264 @ 0x5587d33f1d80] frame P:32    Avg QP:24.16  size: 96635
[libx264 @ 0x5587d33f1d80] frame B:85    Avg QP:24.82  size: 29755
[libx264 @ 0x5587d33f1d80] consecutive B-frames:  4.2%  3.3%  2.5% 90.0%
[libx264 @ 0x5587d33f1d80] mb I  I16..4: 14.0% 80.2%  5.8%
[libx264 @ 0x5587d33f1d80] mb P  I16..4:  1.6%  7.1%  0.3%  P16..4: 40.1%  8.4%  5.7%  0.0%  0.0%    skip:36.8%
[libx264 @ 0x5587d33f1d80] mb B  I16..4:  0.1%  0.4%  0.0%  B16..8: 39.3%  1.5%  0.3%  direct: 1.2%  skip:57.2%  L0:38.1% L1:60.4% BI: 1.5%
[libx264 @ 0x5587d33f1d80] 8x8 transform intra:79.8% inter:90.6%
[libx264 @ 0x5587d33f1d80] coded y,uvDC,uvAC intra: 67.7% 70.1% 22.1% inter: 11.4% 13.4% 0.0%
[libx264 @ 0x5587d33f1d80] i16 v,h,dc,p:  9% 21%  2% 68%
[libx264 @ 0x5587d33f1d80] i8 v,h,dc,ddl,ddr,vr,hd,vl,hu: 17% 23% 11%  6%  8%  7% 11%  8%  9%
[libx264 @ 0x5587d33f1d80] i4 v,h,dc,ddl,ddr,vr,hd,vl,hu: 18% 30%  7%  6% 10%  7% 11%  5%  6%
[libx264 @ 0x5587d33f1d80] i8c dc,h,v,p: 54% 22% 17%  7%
[libx264 @ 0x5587d33f1d80] Weighted P-Frames: Y:0.0% UV:0.0%
[libx264 @ 0x5587d33f1d80] ref P L0: 63.0% 14.0% 18.6%  4.4%
[libx264 @ 0x5587d33f1d80] ref B L0: 91.1%  7.6%  1.3%
[libx264 @ 0x5587d33f1d80] ref B L1: 94.8%  5.2%
[libx264 @ 0x5587d33f1d80] kb/s:13183.17
